# MagicaVoxel @ Ephtracy

# group
o 

# material
mtllib PlayerGun.mtl
usemtl palette

# normals
vn -1 0 0
vn 1 0 0
vn 0 0 1
vn 0 0 -1
vn 0 -1 0
vn 0 1 0

# texcoords
vt 0.138672 0.5
vt 0.400391 0.5
vt 0.404297 0.5

# verts
v -0.3 0 0.5
v -0.3 0 0.4
v -0.3 0 -0.2
v -0.3 0.2 0.5
v -0.3 0.2 0.4
v -0.3 0.2 -0.2
v -0.2 0 -0.2
v -0.2 0 -0.3
v -0.2 0.2 0.1
v -0.2 0.2 -0.1
v -0.2 0.2 -0.2
v -0.2 0.2 -0.3
v -0.2 0.3 0.1
v -0.2 0.3 -0.1
v -0.1 0.2 0.2
v -0.1 0.2 0.1
v -0.1 0.2 -0.1
v -0.1 0.2 -0.2
v -0.1 0.3 0.2
v -0.1 0.3 0.1
v -0.1 0.3 -0.1
v -0.1 0.3 -0.2
v 0.1 0 0.5
v 0.1 0 0.4
v 0.1 0 0.3
v 0.1 0.2 0.5
v 0.1 0.2 0.4
v 0.1 0.2 0.3
v -0.1 0 0.5
v -0.1 0 0.4
v -0.1 0 0.3
v -0.1 0.2 0.5
v -0.1 0.2 0.4
v -0.1 0.2 0.3
v 0.1 0.2 0.2
v 0.1 0.2 0.1
v 0.1 0.2 -0.1
v 0.1 0.2 -0.2
v 0.1 0.3 0.2
v 0.1 0.3 0.1
v 0.1 0.3 -0.1
v 0.1 0.3 -0.2
v 0.2 0 -0.2
v 0.2 0 -0.3
v 0.2 0.2 0.1
v 0.2 0.2 -0.1
v 0.2 0.2 -0.2
v 0.2 0.2 -0.3
v 0.2 0.3 0.1
v 0.2 0.3 -0.1
v 0.3 0 0.5
v 0.3 0 0.4
v 0.3 0 -0.2
v 0.3 0.2 0.5
v 0.3 0.2 0.4
v 0.3 0.2 -0.2
v -0.3 0 0.5
v -0.3 0.2 0.5
v -0.1 0 0.5
v -0.1 0.2 0.5
v 0.1 0 0.5
v 0.1 0.2 0.5
v 0.3 0 0.5
v 0.3 0.2 0.5
v -0.1 0 0.3
v -0.1 0.2 0.3
v 0.1 0 0.3
v 0.1 0.2 0.3
v -0.1 0.2 0.2
v -0.1 0.3 0.2
v 0.1 0.2 0.2
v 0.1 0.3 0.2
v -0.2 0.2 0.1
v -0.2 0.3 0.1
v -0.1 0.2 0.1
v -0.1 0.3 0.1
v 0.1 0.2 0.1
v 0.1 0.3 0.1
v 0.2 0.2 0.1
v 0.2 0.3 0.1
v -0.2 0.2 -0.1
v -0.2 0.3 -0.1
v -0.1 0.2 -0.1
v -0.1 0.3 -0.1
v 0.1 0.2 -0.1
v 0.1 0.3 -0.1
v 0.2 0.2 -0.1
v 0.2 0.3 -0.1
v -0.3 0 -0.2
v -0.3 0.2 -0.2
v -0.2 0 -0.2
v -0.2 0.2 -0.2
v -0.1 0.2 -0.2
v -0.1 0.3 -0.2
v 0.1 0.2 -0.2
v 0.1 0.3 -0.2
v 0.2 0 -0.2
v 0.2 0.2 -0.2
v 0.3 0 -0.2
v 0.3 0.2 -0.2
v -0.2 0 -0.3
v -0.2 0.2 -0.3
v -0.1 0 -0.3
v -0.1 0.2 -0.3
v 0.1 0 -0.3
v 0.1 0.2 -0.3
v 0.2 0 -0.3
v 0.2 0.2 -0.3
v -0.3 0 0.5
v -0.1 0 0.5
v 0.1 0 0.5
v 0.3 0 0.5
v -0.3 0 0.4
v -0.1 0 0.4
v 0.1 0 0.4
v 0.3 0 0.4
v -0.1 0 0.3
v 0.1 0 0.3
v -0.3 0 -0.2
v -0.2 0 -0.2
v 0.2 0 -0.2
v 0.3 0 -0.2
v -0.2 0 -0.3
v -0.1 0 -0.3
v 0.1 0 -0.3
v 0.2 0 -0.3
v -0.3 0.2 0.5
v -0.1 0.2 0.5
v 0.1 0.2 0.5
v 0.3 0.2 0.5
v -0.3 0.2 0.4
v -0.1 0.2 0.4
v 0.1 0.2 0.4
v 0.3 0.2 0.4
v -0.1 0.2 0.3
v 0.1 0.2 0.3
v -0.2 0.2 0.2
v -0.1 0.2 0.2
v 0.1 0.2 0.2
v 0.2 0.2 0.2
v -0.2 0.2 0.1
v -0.1 0.2 0.1
v 0.1 0.2 0.1
v 0.2 0.2 0.1
v -0.2 0.2 -0.1
v -0.1 0.2 -0.1
v 0.1 0.2 -0.1
v 0.2 0.2 -0.1
v -0.3 0.2 -0.2
v -0.2 0.2 -0.2
v -0.1 0.2 -0.2
v 0.1 0.2 -0.2
v 0.2 0.2 -0.2
v 0.3 0.2 -0.2
v -0.2 0.2 -0.3
v -0.1 0.2 -0.3
v 0.1 0.2 -0.3
v 0.2 0.2 -0.3
v -0.1 0.3 0.2
v 0.1 0.3 0.2
v -0.2 0.3 0.1
v -0.1 0.3 0.1
v 0.1 0.3 0.1
v 0.2 0.3 0.1
v -0.2 0.3 -0.1
v -0.1 0.3 -0.1
v 0.1 0.3 -0.1
v 0.2 0.3 -0.1
v -0.1 0.3 -0.2
v 0.1 0.3 -0.2

# faces
f 4/1/1 2/1/1 1/1/1
f 5/2/1 3/2/1 2/2/1
f 5/1/1 2/1/1 4/1/1
f 6/2/1 3/2/1 5/2/1
f 11/2/1 8/2/1 7/2/1
f 12/2/1 8/2/1 11/2/1
f 13/3/1 10/3/1 9/3/1
f 14/3/1 10/3/1 13/3/1
f 19/3/1 16/3/1 15/3/1
f 20/3/1 16/3/1 19/3/1
f 21/3/1 18/3/1 17/3/1
f 22/3/1 18/3/1 21/3/1
f 26/1/1 24/1/1 23/1/1
f 27/2/1 25/2/1 24/2/1
f 27/1/1 24/1/1 26/1/1
f 28/2/1 25/2/1 27/2/1
f 29/1/2 30/1/2 32/1/2
f 30/2/2 31/2/2 33/2/2
f 32/1/2 30/1/2 33/1/2
f 33/2/2 31/2/2 34/2/2
f 35/3/2 36/3/2 39/3/2
f 39/3/2 36/3/2 40/3/2
f 37/3/2 38/3/2 41/3/2
f 41/3/2 38/3/2 42/3/2
f 43/2/2 44/2/2 47/2/2
f 47/2/2 44/2/2 48/2/2
f 45/3/2 46/3/2 49/3/2
f 49/3/2 46/3/2 50/3/2
f 51/1/2 52/1/2 54/1/2
f 52/2/2 53/2/2 55/2/2
f 54/1/2 52/1/2 55/1/2
f 55/2/2 53/2/2 56/2/2
f 59/1/3 58/1/3 57/1/3
f 60/1/3 58/1/3 59/1/3
f 63/1/3 62/1/3 61/1/3
f 64/1/3 62/1/3 63/1/3
f 67/3/3 66/3/3 65/3/3
f 68/3/3 66/3/3 67/3/3
f 71/3/3 70/3/3 69/3/3
f 72/3/3 70/3/3 71/3/3
f 75/3/3 74/3/3 73/3/3
f 76/3/3 74/3/3 75/3/3
f 79/3/3 78/3/3 77/3/3
f 80/3/3 78/3/3 79/3/3
f 81/3/4 82/3/4 83/3/4
f 83/3/4 82/3/4 84/3/4
f 85/3/4 86/3/4 87/3/4
f 87/3/4 86/3/4 88/3/4
f 89/2/4 90/2/4 91/2/4
f 91/2/4 90/2/4 92/2/4
f 93/3/4 94/3/4 95/3/4
f 95/3/4 94/3/4 96/3/4
f 97/2/4 98/2/4 99/2/4
f 99/2/4 98/2/4 100/2/4
f 101/2/4 102/2/4 103/2/4
f 103/2/4 102/2/4 104/2/4
f 103/3/4 104/3/4 105/3/4
f 105/3/4 104/3/4 106/3/4
f 105/2/4 106/2/4 107/2/4
f 107/2/4 106/2/4 108/2/4
f 113/1/5 110/1/5 109/1/5
f 114/1/5 110/1/5 113/1/5
f 115/1/5 112/1/5 111/1/5
f 116/1/5 112/1/5 115/1/5
f 117/2/5 114/2/5 113/2/5
f 118/2/5 116/2/5 115/2/5
f 119/2/5 117/2/5 113/2/5
f 120/2/5 117/2/5 119/2/5
f 121/2/5 116/2/5 118/2/5
f 122/2/5 116/2/5 121/2/5
f 123/2/5 117/2/5 120/2/5
f 124/3/5 118/3/5 117/3/5
f 124/2/5 117/2/5 123/2/5
f 125/2/5 121/2/5 118/2/5
f 125/3/5 118/3/5 124/3/5
f 126/2/5 121/2/5 125/2/5
f 127/1/6 128/1/6 131/1/6
f 131/1/6 128/1/6 132/1/6
f 129/1/6 130/1/6 133/1/6
f 133/1/6 130/1/6 134/1/6
f 131/2/6 132/2/6 135/2/6
f 133/2/6 134/2/6 136/2/6
f 131/2/6 135/2/6 137/2/6
f 135/3/6 136/3/6 138/3/6
f 137/2/6 135/2/6 138/2/6
f 136/2/6 134/2/6 139/2/6
f 138/3/6 136/3/6 139/3/6
f 139/2/6 134/2/6 140/2/6
f 131/2/6 137/2/6 141/2/6
f 137/3/6 138/3/6 141/3/6
f 141/3/6 138/3/6 142/3/6
f 139/3/6 140/3/6 143/3/6
f 140/2/6 134/2/6 144/2/6
f 143/3/6 140/3/6 144/3/6
f 131/2/6 141/2/6 145/2/6
f 144/2/6 134/2/6 148/2/6
f 131/2/6 145/2/6 149/2/6
f 145/3/6 146/3/6 150/3/6
f 149/2/6 145/2/6 150/2/6
f 150/3/6 146/3/6 151/3/6
f 147/3/6 148/3/6 152/3/6
f 148/2/6 134/2/6 153/2/6
f 152/3/6 148/3/6 153/3/6
f 153/2/6 134/2/6 154/2/6
f 150/2/6 151/2/6 155/2/6
f 151/3/6 152/3/6 156/3/6
f 155/2/6 151/2/6 156/2/6
f 152/2/6 153/2/6 157/2/6
f 156/3/6 152/3/6 157/3/6
f 157/2/6 153/2/6 158/2/6
f 159/3/6 160/3/6 162/3/6
f 162/3/6 160/3/6 163/3/6
f 161/3/6 162/3/6 165/3/6
f 163/3/6 164/3/6 165/3/6
f 162/3/6 163/3/6 165/3/6
f 165/3/6 164/3/6 166/3/6
f 166/3/6 164/3/6 167/3/6
f 167/3/6 164/3/6 168/3/6
f 166/3/6 167/3/6 169/3/6
f 169/3/6 167/3/6 170/3/6
