# MagicaVoxel @ Ephtracy

# group
o 

# material
mtllib Tile_001.mtl
usemtl palette

# normals
vn -1 0 0
vn 1 0 0
vn 0 0 1
vn 0 0 -1
vn 0 -1 0
vn 0 1 0

# texcoords
vt 0.111328 0.5
vt 0.134766 0.5
vt 0.279297 0.5
vt 0.845703 0.5
vt 0.849609 0.5
vt 0.861328 0.5
vt 0.869141 0.5
vt 0.951172 0.5
vt 0.958984 0.5

# verts
v -0.5 0 0.5
v -0.5 0 -0.5
v -0.5 0.3 0.5
v -0.5 0.3 -0.5
v -0.5 0.4 0.4
v -0.5 0.4 0.3
v -0.5 0.4 0.2
v -0.5 0.4 -0.2
v -0.5 0.4 -0.3
v -0.5 0.4 -0.4
v -0.5 0.5 0.4
v -0.5 0.5 0.3
v -0.5 0.5 0.2
v -0.5 0.5 0.1
v -0.5 0.5 0
v -0.5 0.5 -0.2
v -0.5 0.5 -0.3
v -0.5 0.6 0.4
v -0.5 0.6 0.3
v -0.5 0.6 0.2
v -0.5 0.6 0.1
v -0.5 0.6 0
v -0.5 0.6 -0.1
v -0.5 0.6 -0.2
v -0.5 0.6 -0.3
v -0.5 0.7 0.4
v -0.5 0.7 0.3
v -0.5 0.7 0.1
v -0.5 0.7 0
v -0.5 0.7 -0.1
v -0.5 0.7 -0.2
v -0.5 0.7 -0.3
v -0.5 0.7 -0.4
v -0.5 0.8 0.3
v -0.5 0.8 0.2
v -0.5 0.8 0.1
v -0.5 0.8 0
v -0.5 0.8 -0.2
v -0.5 0.8 -0.3
v -0.5 0.8 -0.4
v -0.5 0.9 0.4
v -0.5 0.9 0.3
v -0.5 0.9 0.2
v -0.5 0.9 0.1
v -0.5 0.9 -0.2
v -0.5 0.9 -0.3
v -0.5 0.9 -0.4
v -0.5 1 0.5
v -0.5 1 -0.5
v 0.5 0 0.5
v 0.5 0 -0.5
v 0.5 0.3 0.5
v 0.5 0.3 -0.5
v 0.5 0.4 0.4
v 0.5 0.4 0.3
v 0.5 0.4 0.2
v 0.5 0.4 0
v 0.5 0.4 -0.1
v 0.5 0.4 -0.3
v 0.5 0.4 -0.4
v 0.5 0.5 0.3
v 0.5 0.5 0.2
v 0.5 0.5 0.1
v 0.5 0.5 0
v 0.5 0.5 -0.1
v 0.5 0.5 -0.2
v 0.5 0.5 -0.3
v 0.5 0.5 -0.4
v 0.5 0.6 0.3
v 0.5 0.6 0.2
v 0.5 0.6 0.1
v 0.5 0.6 0
v 0.5 0.6 -0.1
v 0.5 0.6 -0.2
v 0.5 0.6 -0.3
v 0.5 0.7 0.3
v 0.5 0.7 0.2
v 0.5 0.7 0.1
v 0.5 0.7 0
v 0.5 0.7 -0.1
v 0.5 0.7 -0.2
v 0.5 0.7 -0.3
v 0.5 0.7 -0.4
v 0.5 0.8 0.4
v 0.5 0.8 0.3
v 0.5 0.8 0.2
v 0.5 0.8 0.1
v 0.5 0.8 0
v 0.5 0.8 -0.1
v 0.5 0.8 -0.2
v 0.5 0.8 -0.3
v 0.5 0.8 -0.4
v 0.5 0.9 0.4
v 0.5 0.9 0.3
v 0.5 0.9 0.2
v 0.5 0.9 0.1
v 0.5 0.9 -0.2
v 0.5 0.9 -0.3
v 0.5 0.9 -0.4
v 0.5 1 0.5
v 0.5 1 -0.5
v -0.5 0 0.5
v -0.5 0.3 0.5
v -0.5 1 0.5
v -0.4 0.4 0.5
v -0.4 0.7 0.5
v -0.4 0.8 0.5
v -0.4 0.9 0.5
v -0.3 0.4 0.5
v -0.3 0.5 0.5
v -0.3 0.6 0.5
v -0.3 0.7 0.5
v -0.3 0.8 0.5
v -0.3 0.9 0.5
v -0.2 0.4 0.5
v -0.2 0.5 0.5
v -0.2 0.6 0.5
v -0.2 0.7 0.5
v -0.2 0.8 0.5
v -0.2 0.9 0.5
v -0.1 0.4 0.5
v -0.1 0.5 0.5
v -0.1 0.6 0.5
v -0.1 0.7 0.5
v -0.1 0.8 0.5
v 0 0.4 0.5
v 0 0.5 0.5
v 0 0.6 0.5
v 0 0.7 0.5
v 0 0.8 0.5
v 0.1 0.4 0.5
v 0.1 0.5 0.5
v 0.1 0.6 0.5
v 0.1 0.7 0.5
v 0.1 0.8 0.5
v 0.2 0.5 0.5
v 0.2 0.6 0.5
v 0.2 0.8 0.5
v 0.2 0.9 0.5
v 0.3 0.5 0.5
v 0.3 0.6 0.5
v 0.3 0.7 0.5
v 0.3 0.8 0.5
v 0.3 0.9 0.5
v 0.4 0.4 0.5
v 0.4 0.6 0.5
v 0.4 0.7 0.5
v 0.4 0.8 0.5
v 0.4 0.9 0.5
v 0.5 0 0.5
v 0.5 0.3 0.5
v 0.5 1 0.5
v -0.5 0 -0.5
v -0.5 0.3 -0.5
v -0.5 1 -0.5
v -0.4 0.4 -0.5
v -0.4 0.5 -0.5
v -0.4 0.6 -0.5
v -0.4 0.7 -0.5
v -0.4 0.8 -0.5
v -0.4 0.9 -0.5
v -0.3 0.4 -0.5
v -0.3 0.5 -0.5
v -0.3 0.6 -0.5
v -0.3 0.7 -0.5
v -0.3 0.8 -0.5
v -0.3 0.9 -0.5
v -0.2 0.4 -0.5
v -0.2 0.5 -0.5
v -0.2 0.6 -0.5
v -0.2 0.7 -0.5
v -0.2 0.8 -0.5
v -0.2 0.9 -0.5
v -0.1 0.5 -0.5
v -0.1 0.6 -0.5
v -0.1 0.7 -0.5
v -0.1 0.8 -0.5
v -0.1 0.9 -0.5
v 0 0.4 -0.5
v 0 0.5 -0.5
v 0 0.6 -0.5
v 0 0.7 -0.5
v 0.1 0.4 -0.5
v 0.1 0.5 -0.5
v 0.1 0.6 -0.5
v 0.1 0.7 -0.5
v 0.1 0.8 -0.5
v 0.2 0.4 -0.5
v 0.2 0.5 -0.5
v 0.2 0.6 -0.5
v 0.2 0.7 -0.5
v 0.2 0.8 -0.5
v 0.2 0.9 -0.5
v 0.3 0.4 -0.5
v 0.3 0.5 -0.5
v 0.3 0.6 -0.5
v 0.3 0.7 -0.5
v 0.3 0.8 -0.5
v 0.3 0.9 -0.5
v 0.4 0.4 -0.5
v 0.4 0.5 -0.5
v 0.4 0.6 -0.5
v 0.4 0.7 -0.5
v 0.4 0.8 -0.5
v 0.4 0.9 -0.5
v 0.5 0 -0.5
v 0.5 0.3 -0.5
v 0.5 1 -0.5
v -0.5 0 0.5
v 0.5 0 0.5
v -0.5 0 -0.5
v 0.5 0 -0.5
v -0.5 1 0.5
v 0.5 1 0.5
v -0.4 1 0.4
v -0.3 1 0.4
v -0.2 1 0.4
v 0.2 1 0.4
v 0.3 1 0.4
v 0.4 1 0.4
v -0.3 1 0.3
v -0.2 1 0.3
v 0 1 0.3
v 0.1 1 0.3
v 0.2 1 0.3
v 0.3 1 0.3
v 0.4 1 0.3
v -0.4 1 0.2
v -0.3 1 0.2
v -0.2 1 0.2
v 0 1 0.2
v 0.1 1 0.2
v 0.2 1 0.2
v 0.3 1 0.2
v 0.4 1 0.2
v -0.4 1 0.1
v -0.3 1 0.1
v -0.2 1 0.1
v -0.1 1 0.1
v 0 1 0.1
v 0.1 1 0.1
v 0.3 1 0.1
v 0.4 1 0.1
v -0.4 1 0
v -0.3 1 0
v -0.2 1 0
v -0.1 1 0
v 0 1 0
v 0.1 1 0
v 0.2 1 0
v 0.3 1 0
v 0.4 1 0
v -0.4 1 -0.1
v -0.3 1 -0.1
v 0 1 -0.1
v 0.1 1 -0.1
v 0.2 1 -0.1
v 0.3 1 -0.1
v -0.4 1 -0.2
v -0.3 1 -0.2
v -0.2 1 -0.2
v -0.1 1 -0.2
v 0 1 -0.2
v 0.1 1 -0.2
v 0.2 1 -0.2
v 0.3 1 -0.2
v -0.4 1 -0.3
v -0.3 1 -0.3
v -0.2 1 -0.3
v -0.1 1 -0.3
v 0 1 -0.3
v 0.2 1 -0.3
v 0.3 1 -0.3
v 0.4 1 -0.3
v -0.4 1 -0.4
v 0.3 1 -0.4
v 0.4 1 -0.4
v -0.5 1 -0.5
v 0.5 1 -0.5

# faces
f 3/9/1 2/9/1 1/9/1
f 4/9/1 2/9/1 3/9/1
f 5/8/1 4/8/1 3/8/1
f 6/8/1 4/8/1 5/8/1
f 7/8/1 4/8/1 6/8/1
f 8/8/1 4/8/1 7/8/1
f 9/8/1 4/8/1 8/8/1
f 10/8/1 4/8/1 9/8/1
f 11/8/1 5/8/1 3/8/1
f 11/5/1 6/5/1 5/5/1
f 12/7/1 7/7/1 6/7/1
f 12/5/1 6/5/1 11/5/1
f 13/4/1 8/4/1 7/4/1
f 13/7/1 7/7/1 12/7/1
f 14/4/1 8/4/1 13/4/1
f 15/4/1 8/4/1 14/4/1
f 16/2/1 9/2/1 8/2/1
f 16/4/1 8/4/1 15/4/1
f 17/4/1 10/4/1 9/4/1
f 17/2/1 9/2/1 16/2/1
f 18/8/1 11/8/1 3/8/1
f 18/4/1 12/4/1 11/4/1
f 19/6/1 13/6/1 12/6/1
f 19/4/1 12/4/1 18/4/1
f 20/4/1 14/4/1 13/4/1
f 20/6/1 13/6/1 19/6/1
f 21/5/1 15/5/1 14/5/1
f 21/4/1 14/4/1 20/4/1
f 22/4/1 16/4/1 15/4/1
f 22/5/1 15/5/1 21/5/1
f 23/4/1 16/4/1 22/4/1
f 24/6/1 17/6/1 16/6/1
f 24/4/1 16/4/1 23/4/1
f 25/4/1 10/4/1 17/4/1
f 25/6/1 17/6/1 24/6/1
f 26/8/1 18/8/1 3/8/1
f 26/2/1 19/2/1 18/2/1
f 27/4/1 21/4/1 20/4/1
f 27/2/1 19/2/1 26/2/1
f 27/4/1 23/4/1 22/4/1
f 27/4/1 22/4/1 21/4/1
f 27/4/1 20/4/1 19/4/1
f 28/4/1 23/4/1 27/4/1
f 29/4/1 23/4/1 28/4/1
f 30/2/1 24/2/1 23/2/1
f 30/4/1 23/4/1 29/4/1
f 31/5/1 25/5/1 24/5/1
f 31/2/1 24/2/1 30/2/1
f 32/4/1 10/4/1 25/4/1
f 32/5/1 25/5/1 31/5/1
f 33/8/1 4/8/1 10/8/1
f 33/4/1 10/4/1 32/4/1
f 34/4/1 27/4/1 26/4/1
f 34/4/1 28/4/1 27/4/1
f 35/4/1 28/4/1 34/4/1
f 36/6/1 29/6/1 28/6/1
f 36/4/1 28/4/1 35/4/1
f 37/4/1 32/4/1 31/4/1
f 37/6/1 29/6/1 36/6/1
f 37/4/1 30/4/1 29/4/1
f 37/4/1 31/4/1 30/4/1
f 38/4/1 32/4/1 37/4/1
f 39/7/1 33/7/1 32/7/1
f 39/4/1 32/4/1 38/4/1
f 40/8/1 4/8/1 33/8/1
f 40/7/1 33/7/1 39/7/1
f 41/8/1 26/8/1 3/8/1
f 41/4/1 34/4/1 26/4/1
f 42/5/1 35/5/1 34/5/1
f 42/4/1 34/4/1 41/4/1
f 43/2/1 36/2/1 35/2/1
f 43/5/1 35/5/1 42/5/1
f 44/4/1 38/4/1 37/4/1
f 44/2/1 36/2/1 43/2/1
f 44/4/1 37/4/1 36/4/1
f 45/6/1 39/6/1 38/6/1
f 45/4/1 38/4/1 44/4/1
f 46/4/1 40/4/1 39/4/1
f 46/6/1 39/6/1 45/6/1
f 47/8/1 4/8/1 40/8/1
f 47/4/1 40/4/1 46/4/1
f 48/8/1 42/8/1 41/8/1
f 48/8/1 46/8/1 45/8/1
f 48/8/1 47/8/1 46/8/1
f 48/8/1 44/8/1 43/8/1
f 48/8/1 43/8/1 42/8/1
f 48/8/1 45/8/1 44/8/1
f 48/8/1 41/8/1 3/8/1
f 49/8/1 4/8/1 47/8/1
f 49/8/1 47/8/1 48/8/1
f 50/9/2 51/9/2 52/9/2
f 52/9/2 51/9/2 53/9/2
f 52/8/2 53/8/2 54/8/2
f 54/8/2 53/8/2 55/8/2
f 55/8/2 53/8/2 56/8/2
f 56/8/2 53/8/2 57/8/2
f 57/8/2 53/8/2 58/8/2
f 58/8/2 53/8/2 59/8/2
f 59/8/2 53/8/2 60/8/2
f 54/4/2 55/4/2 61/4/2
f 55/5/2 56/5/2 61/5/2
f 56/4/2 57/4/2 62/4/2
f 61/5/2 56/5/2 62/5/2
f 62/4/2 57/4/2 63/4/2
f 57/7/2 58/7/2 64/7/2
f 63/4/2 57/4/2 64/4/2
f 58/4/2 59/4/2 65/4/2
f 64/7/2 58/7/2 65/7/2
f 65/4/2 59/4/2 66/4/2
f 59/2/2 60/2/2 67/2/2
f 66/4/2 59/4/2 67/4/2
f 60/8/2 53/8/2 68/8/2
f 67/2/2 60/2/2 68/2/2
f 54/4/2 61/4/2 69/4/2
f 61/6/2 62/6/2 69/6/2
f 62/4/2 63/4/2 70/4/2
f 69/6/2 62/6/2 70/6/2
f 63/2/2 64/2/2 71/2/2
f 70/4/2 63/4/2 71/4/2
f 65/4/2 66/4/2 72/4/2
f 71/2/2 64/2/2 72/2/2
f 64/4/2 65/4/2 72/4/2
f 72/4/2 66/4/2 73/4/2
f 66/6/2 67/6/2 74/6/2
f 73/4/2 66/4/2 74/4/2
f 67/4/2 68/4/2 75/4/2
f 74/6/2 67/6/2 75/6/2
f 72/4/2 73/4/2 76/4/2
f 70/4/2 71/4/2 76/4/2
f 54/4/2 69/4/2 76/4/2
f 71/4/2 72/4/2 76/4/2
f 69/4/2 70/4/2 76/4/2
f 76/4/2 73/4/2 77/4/2
f 77/4/2 73/4/2 78/4/2
f 78/4/2 73/4/2 79/4/2
f 73/5/2 74/5/2 80/5/2
f 79/4/2 73/4/2 80/4/2
f 74/4/2 75/4/2 81/4/2
f 80/5/2 74/5/2 81/5/2
f 75/4/2 68/4/2 82/4/2
f 81/4/2 75/4/2 82/4/2
f 68/8/2 53/8/2 83/8/2
f 82/4/2 68/4/2 83/4/2
f 52/8/2 54/8/2 84/8/2
f 54/4/2 76/4/2 84/4/2
f 76/5/2 77/5/2 85/5/2
f 84/4/2 76/4/2 85/4/2
f 77/4/2 78/4/2 86/4/2
f 85/5/2 77/5/2 86/5/2
f 78/6/2 79/6/2 87/6/2
f 86/4/2 78/4/2 87/4/2
f 79/4/2 80/4/2 88/4/2
f 87/6/2 79/6/2 88/6/2
f 80/2/2 81/2/2 89/2/2
f 88/4/2 80/4/2 89/4/2
f 81/4/2 82/4/2 90/4/2
f 89/2/2 81/2/2 90/2/2
f 82/6/2 83/6/2 91/6/2
f 90/4/2 82/4/2 91/4/2
f 83/8/2 53/8/2 92/8/2
f 91/6/2 83/6/2 92/6/2
f 52/8/2 84/8/2 93/8/2
f 84/7/2 85/7/2 93/7/2
f 85/4/2 86/4/2 94/4/2
f 93/7/2 85/7/2 94/7/2
f 86/2/2 87/2/2 95/2/2
f 94/4/2 86/4/2 95/4/2
f 87/4/2 88/4/2 96/4/2
f 95/2/2 87/2/2 96/2/2
f 88/4/2 89/4/2 96/4/2
f 89/4/2 90/4/2 96/4/2
f 90/5/2 91/5/2 97/5/2
f 96/4/2 90/4/2 97/4/2
f 91/4/2 92/4/2 98/4/2
f 97/5/2 91/5/2 98/5/2
f 92/8/2 53/8/2 99/8/2
f 98/4/2 92/4/2 99/4/2
f 95/8/2 96/8/2 100/8/2
f 94/8/2 95/8/2 100/8/2
f 98/8/2 99/8/2 100/8/2
f 97/8/2 98/8/2 100/8/2
f 52/8/2 93/8/2 100/8/2
f 96/8/2 97/8/2 100/8/2
f 93/8/2 94/8/2 100/8/2
f 99/8/2 53/8/2 101/8/2
f 100/8/2 99/8/2 101/8/2
f 105/8/3 104/8/3 103/8/3
f 106/8/3 104/8/3 105/8/3
f 107/8/3 104/8/3 106/8/3
f 108/8/3 104/8/3 107/8/3
f 109/8/3 105/8/3 103/8/3
f 109/4/3 106/4/3 105/4/3
f 110/4/3 106/4/3 109/4/3
f 111/4/3 106/4/3 110/4/3
f 112/6/3 107/6/3 106/6/3
f 112/4/3 106/4/3 111/4/3
f 113/4/3 108/4/3 107/4/3
f 113/6/3 107/6/3 112/6/3
f 114/8/3 104/8/3 108/8/3
f 114/4/3 108/4/3 113/4/3
f 115/8/3 109/8/3 103/8/3
f 115/5/3 110/5/3 109/5/3
f 116/2/3 111/2/3 110/2/3
f 116/5/3 110/5/3 115/5/3
f 117/4/3 113/4/3 112/4/3
f 117/2/3 111/2/3 116/2/3
f 117/4/3 112/4/3 111/4/3
f 118/4/3 113/4/3 117/4/3
f 119/2/3 114/2/3 113/2/3
f 119/4/3 113/4/3 118/4/3
f 120/8/3 104/8/3 114/8/3
f 120/2/3 114/2/3 119/2/3
f 121/7/3 116/7/3 115/7/3
f 121/8/3 115/8/3 103/8/3
f 122/4/3 118/4/3 117/4/3
f 122/7/3 116/7/3 121/7/3
f 122/4/3 117/4/3 116/4/3
f 123/4/3 118/4/3 122/4/3
f 124/5/3 119/5/3 118/5/3
f 124/4/3 118/4/3 123/4/3
f 125/4/3 120/4/3 119/4/3
f 125/5/3 119/5/3 124/5/3
f 126/8/3 121/8/3 103/8/3
f 126/4/3 123/4/3 122/4/3
f 126/4/3 122/4/3 121/4/3
f 127/4/3 123/4/3 126/4/3
f 128/6/3 124/6/3 123/6/3
f 128/4/3 123/4/3 127/4/3
f 129/4/3 125/4/3 124/4/3
f 129/6/3 124/6/3 128/6/3
f 130/4/3 120/4/3 125/4/3
f 130/4/3 125/4/3 129/4/3
f 131/2/3 127/2/3 126/2/3
f 131/8/3 126/8/3 103/8/3
f 132/4/3 129/4/3 128/4/3
f 132/2/3 127/2/3 131/2/3
f 132/4/3 128/4/3 127/4/3
f 133/4/3 129/4/3 132/4/3
f 134/5/3 130/5/3 129/5/3
f 134/4/3 129/4/3 133/4/3
f 135/4/3 120/4/3 130/4/3
f 135/5/3 130/5/3 134/5/3
f 136/7/3 133/7/3 132/7/3
f 136/4/3 132/4/3 131/4/3
f 137/4/3 134/4/3 133/4/3
f 137/7/3 133/7/3 136/7/3
f 137/4/3 135/4/3 134/4/3
f 138/4/3 120/4/3 135/4/3
f 138/4/3 135/4/3 137/4/3
f 139/8/3 104/8/3 120/8/3
f 139/4/3 120/4/3 138/4/3
f 140/4/3 136/4/3 131/4/3
f 140/6/3 137/6/3 136/6/3
f 141/4/3 138/4/3 137/4/3
f 141/6/3 137/6/3 140/6/3
f 142/4/3 138/4/3 141/4/3
f 143/6/3 139/6/3 138/6/3
f 143/4/3 138/4/3 142/4/3
f 144/8/3 104/8/3 139/8/3
f 144/6/3 139/6/3 143/6/3
f 145/4/3 140/4/3 131/4/3
f 145/8/3 131/8/3 103/8/3
f 145/4/3 141/4/3 140/4/3
f 146/5/3 142/5/3 141/5/3
f 146/4/3 141/4/3 145/4/3
f 147/2/3 143/2/3 142/2/3
f 147/5/3 142/5/3 146/5/3
f 148/4/3 144/4/3 143/4/3
f 148/2/3 143/2/3 147/2/3
f 149/8/3 104/8/3 144/8/3
f 149/4/3 144/4/3 148/4/3
f 150/9/3 103/9/3 102/9/3
f 151/8/3 148/8/3 147/8/3
f 151/9/3 103/9/3 150/9/3
f 151/8/3 147/8/3 146/8/3
f 151/8/3 149/8/3 148/8/3
f 151/8/3 145/8/3 103/8/3
f 151/8/3 146/8/3 145/8/3
f 152/8/3 104/8/3 149/8/3
f 152/8/3 149/8/3 151/8/3
f 154/8/4 155/8/4 156/8/4
f 156/8/4 155/8/4 157/8/4
f 157/8/4 155/8/4 158/8/4
f 158/8/4 155/8/4 159/8/4
f 159/8/4 155/8/4 160/8/4
f 160/8/4 155/8/4 161/8/4
f 154/8/4 156/8/4 162/8/4
f 156/4/4 157/4/4 162/4/4
f 157/2/4 158/2/4 163/2/4
f 162/4/4 157/4/4 163/4/4
f 158/4/4 159/4/4 164/4/4
f 163/2/4 158/2/4 164/2/4
f 159/6/4 160/6/4 165/6/4
f 164/4/4 159/4/4 165/4/4
f 160/7/4 161/7/4 166/7/4
f 165/6/4 160/6/4 166/6/4
f 161/8/4 155/8/4 167/8/4
f 166/7/4 161/7/4 167/7/4
f 154/8/4 162/8/4 168/8/4
f 162/5/4 163/5/4 168/5/4
f 165/4/4 166/4/4 169/4/4
f 168/5/4 163/5/4 169/5/4
f 164/4/4 165/4/4 169/4/4
f 163/4/4 164/4/4 169/4/4
f 166/4/4 167/4/4 169/4/4
f 169/4/4 167/4/4 170/4/4
f 170/4/4 167/4/4 171/4/4
f 171/4/4 167/4/4 172/4/4
f 167/8/4 155/8/4 173/8/4
f 172/4/4 167/4/4 173/4/4
f 168/4/4 169/4/4 174/4/4
f 169/6/4 170/6/4 174/6/4
f 170/4/4 171/4/4 175/4/4
f 174/6/4 170/6/4 175/6/4
f 171/2/4 172/2/4 176/2/4
f 175/4/4 171/4/4 176/4/4
f 172/5/4 173/5/4 177/5/4
f 176/2/4 172/2/4 177/2/4
f 173/8/4 155/8/4 178/8/4
f 177/5/4 173/5/4 178/5/4
f 154/8/4 168/8/4 179/8/4
f 174/4/4 175/4/4 179/4/4
f 177/4/4 178/4/4 179/4/4
f 168/4/4 174/4/4 179/4/4
f 175/4/4 176/4/4 179/4/4
f 176/4/4 177/4/4 179/4/4
f 179/4/4 178/4/4 180/4/4
f 180/4/4 178/4/4 181/4/4
f 181/4/4 178/4/4 182/4/4
f 154/8/4 179/8/4 183/8/4
f 179/5/4 180/5/4 183/5/4
f 180/4/4 181/4/4 184/4/4
f 183/5/4 180/5/4 184/5/4
f 181/7/4 182/7/4 185/7/4
f 184/4/4 181/4/4 185/4/4
f 182/4/4 178/4/4 186/4/4
f 185/7/4 182/7/4 186/7/4
f 186/4/4 178/4/4 187/4/4
f 184/4/4 185/4/4 188/4/4
f 183/4/4 184/4/4 188/4/4
f 154/8/4 183/8/4 188/8/4
f 188/4/4 185/4/4 189/4/4
f 185/5/4 186/5/4 190/5/4
f 189/4/4 185/4/4 190/4/4
f 186/6/4 187/6/4 191/6/4
f 190/5/4 186/5/4 191/5/4
f 187/4/4 178/4/4 192/4/4
f 191/6/4 187/6/4 192/6/4
f 178/8/4 155/8/4 193/8/4
f 192/4/4 178/4/4 193/4/4
f 188/2/4 189/2/4 194/2/4
f 154/8/4 188/8/4 194/8/4
f 191/4/4 192/4/4 195/4/4
f 194/2/4 189/2/4 195/2/4
f 190/4/4 191/4/4 195/4/4
f 189/4/4 190/4/4 195/4/4
f 195/4/4 192/4/4 196/4/4
f 196/4/4 192/4/4 197/4/4
f 192/2/4 193/2/4 198/2/4
f 197/4/4 192/4/4 198/4/4
f 193/8/4 155/8/4 199/8/4
f 198/2/4 193/2/4 199/2/4
f 154/8/4 194/8/4 200/8/4
f 194/4/4 195/4/4 200/4/4
f 195/6/4 196/6/4 201/6/4
f 200/4/4 195/4/4 201/4/4
f 196/4/4 197/4/4 202/4/4
f 201/6/4 196/6/4 202/6/4
f 197/5/4 198/5/4 203/5/4
f 202/4/4 197/4/4 203/4/4
f 198/4/4 199/4/4 204/4/4
f 203/5/4 198/5/4 204/5/4
f 199/8/4 155/8/4 205/8/4
f 204/4/4 199/4/4 205/4/4
f 153/9/4 154/9/4 206/9/4
f 203/8/4 204/8/4 207/8/4
f 206/9/4 154/9/4 207/9/4
f 200/8/4 201/8/4 207/8/4
f 204/8/4 205/8/4 207/8/4
f 154/8/4 200/8/4 207/8/4
f 202/8/4 203/8/4 207/8/4
f 201/8/4 202/8/4 207/8/4
f 205/8/4 155/8/4 208/8/4
f 207/8/4 205/8/4 208/8/4
f 211/9/5 210/9/5 209/9/5
f 212/9/5 210/9/5 211/9/5
f 213/8/6 214/8/6 215/8/6
f 215/8/6 214/8/6 216/8/6
f 216/8/6 214/8/6 217/8/6
f 217/8/6 214/8/6 218/8/6
f 218/8/6 214/8/6 219/8/6
f 219/8/6 214/8/6 220/8/6
f 215/4/6 216/4/6 221/4/6
f 216/6/6 217/6/6 221/6/6
f 217/4/6 218/4/6 222/4/6
f 221/6/6 217/6/6 222/6/6
f 222/4/6 218/4/6 223/4/6
f 223/4/6 218/4/6 224/4/6
f 218/1/6 219/1/6 225/1/6
f 224/4/6 218/4/6 225/4/6
f 219/4/6 220/4/6 226/4/6
f 225/1/6 219/1/6 226/1/6
f 220/8/6 214/8/6 227/8/6
f 226/4/6 220/4/6 227/4/6
f 213/8/6 215/8/6 228/8/6
f 215/4/6 221/4/6 228/4/6
f 221/7/6 222/7/6 229/7/6
f 228/4/6 221/4/6 229/4/6
f 222/4/6 223/4/6 230/4/6
f 229/7/6 222/7/6 230/7/6
f 223/1/6 224/1/6 231/1/6
f 230/4/6 223/4/6 231/4/6
f 224/4/6 225/4/6 232/4/6
f 231/1/6 224/1/6 232/1/6
f 225/6/6 226/6/6 233/6/6
f 232/4/6 225/4/6 233/4/6
f 226/7/6 227/7/6 234/7/6
f 233/6/6 226/6/6 234/6/6
f 227/8/6 214/8/6 235/8/6
f 234/7/6 227/7/6 235/7/6
f 213/8/6 228/8/6 236/8/6
f 228/3/6 229/3/6 236/3/6
f 233/4/6 234/4/6 237/4/6
f 236/3/6 229/3/6 237/3/6
f 231/4/6 232/4/6 237/4/6
f 234/4/6 235/4/6 237/4/6
f 230/4/6 231/4/6 237/4/6
f 229/4/6 230/4/6 237/4/6
f 232/4/6 233/4/6 237/4/6
f 237/4/6 235/4/6 238/4/6
f 238/4/6 235/4/6 239/4/6
f 239/4/6 235/4/6 240/4/6
f 240/4/6 235/4/6 241/4/6
f 241/4/6 235/4/6 242/4/6
f 235/8/6 214/8/6 243/8/6
f 242/4/6 235/4/6 243/4/6
f 213/8/6 236/8/6 244/8/6
f 236/4/6 237/4/6 244/4/6
f 237/4/6 238/4/6 244/4/6
f 244/4/6 238/4/6 245/4/6
f 238/3/6 239/3/6 246/3/6
f 245/4/6 238/4/6 246/4/6
f 239/4/6 240/4/6 247/4/6
f 246/3/6 239/3/6 247/3/6
f 240/6/6 241/6/6 248/6/6
f 247/4/6 240/4/6 248/4/6
f 241/4/6 242/4/6 249/4/6
f 248/6/6 241/6/6 249/6/6
f 249/4/6 242/4/6 250/4/6
f 242/1/6 243/1/6 251/1/6
f 250/4/6 242/4/6 251/4/6
f 243/8/6 214/8/6 252/8/6
f 251/1/6 243/1/6 252/1/6
f 244/1/6 245/1/6 253/1/6
f 213/8/6 244/8/6 253/8/6
f 247/4/6 248/4/6 254/4/6
f 253/1/6 245/1/6 254/1/6
f 246/4/6 247/4/6 254/4/6
f 245/4/6 246/4/6 254/4/6
f 248/2/6 249/2/6 255/2/6
f 254/4/6 248/4/6 255/4/6
f 249/4/6 250/4/6 256/4/6
f 255/2/6 249/2/6 256/2/6
f 250/3/6 251/3/6 257/3/6
f 256/4/6 250/4/6 257/4/6
f 251/4/6 252/4/6 258/4/6
f 257/3/6 251/3/6 258/3/6
f 213/8/6 253/8/6 259/8/6
f 254/4/6 255/4/6 259/4/6
f 253/4/6 254/4/6 259/4/6
f 259/4/6 255/4/6 260/4/6
f 260/4/6 255/4/6 261/4/6
f 261/4/6 255/4/6 262/4/6
f 255/3/6 256/3/6 263/3/6
f 262/4/6 255/4/6 263/4/6
f 257/4/6 258/4/6 264/4/6
f 263/3/6 256/3/6 264/3/6
f 256/4/6 257/4/6 264/4/6
f 264/4/6 258/4/6 265/4/6
f 258/4/6 252/4/6 266/4/6
f 265/4/6 258/4/6 266/4/6
f 213/8/6 259/8/6 267/8/6
f 259/2/6 260/2/6 267/2/6
f 260/6/6 261/6/6 268/6/6
f 267/2/6 260/2/6 268/2/6
f 261/4/6 262/4/6 269/4/6
f 268/6/6 261/6/6 269/6/6
f 262/1/6 263/1/6 270/1/6
f 269/4/6 262/4/6 270/4/6
f 264/4/6 265/4/6 271/4/6
f 270/1/6 263/1/6 271/1/6
f 263/4/6 264/4/6 271/4/6
f 265/6/6 266/6/6 272/6/6
f 271/4/6 265/4/6 272/4/6
f 266/4/6 252/4/6 273/4/6
f 272/6/6 266/6/6 273/6/6
f 252/8/6 214/8/6 274/8/6
f 273/4/6 252/4/6 274/4/6
f 267/4/6 268/4/6 275/4/6
f 269/4/6 270/4/6 275/4/6
f 268/4/6 269/4/6 275/4/6
f 270/4/6 271/4/6 275/4/6
f 271/4/6 272/4/6 275/4/6
f 272/4/6 273/4/6 275/4/6
f 213/8/6 267/8/6 275/8/6
f 273/2/6 274/2/6 276/2/6
f 275/4/6 273/4/6 276/4/6
f 274/8/6 214/8/6 277/8/6
f 276/2/6 274/2/6 277/2/6
f 275/8/6 276/8/6 278/8/6
f 213/8/6 275/8/6 278/8/6
f 276/8/6 277/8/6 278/8/6
f 277/8/6 214/8/6 279/8/6
f 278/8/6 277/8/6 279/8/6
